<?xml version="1.0" standalone="no"?>
<!DOCTYPE svg PUBLIC "-//W3C//DTD SVG 20010904//EN"
 "http://www.w3.org/TR/2001/REC-SVG-20010904/DTD/svg10.dtd">
<svg version="1.0" xmlns="http://www.w3.org/2000/svg"
 width="192.000000pt" height="192.000000pt" viewBox="0 0 192.000000 192.000000"
 preserveAspectRatio="xMidYMid meet">
<metadata>
Created by potrace 1.11, written by Peter Selinger 2001-2013
</metadata>
<g transform="translate(0.000000,192.000000) scale(0.100000,-0.100000)"
fill="#000000" stroke="none">
<path d="M250 1719 c-43 -18 -79 -60 -100 -117 -27 -70 -36 -214 -21 -311 9
-55 9 -88 0 -132 -6 -33 -10 -62 -7 -65 3 -2 32 13 64 35 69 46 161 79 244 88
111 11 254 -34 319 -101 l31 -32 -99 4 c-154 6 -260 -32 -370 -134 -44 -40
-71 -77 -98 -132 -35 -70 -38 -83 -38 -161 0 -68 5 -97 24 -138 38 -85 137
-167 238 -198 21 -6 23 -3 23 30 0 47 25 99 56 120 30 20 44 12 44 -24 0 -16
19 -66 43 -112 40 -80 44 -85 107 -116 153 -78 312 -80 460 -6 65 33 79 45
102 88 29 53 53 113 62 157 8 37 28 35 65 -7 21 -24 32 -50 37 -84 6 -47 7
-49 33 -41 172 49 282 216 252 383 -29 165 -160 306 -334 358 -55 17 -87 21
-168 17 -54 -2 -99 -1 -99 3 0 14 102 82 151 100 142 54 335 22 467 -79 18
-14 34 -23 37 -21 2 3 -2 33 -9 68 -9 45 -10 76 -4 105 5 23 8 100 6 171 -3
114 -7 137 -30 186 -41 91 -107 122 -210 100 -114 -25 -301 -143 -348 -220
-19 -32 -30 -40 -45 -36 -11 3 -45 12 -75 20 -72 20 -159 18 -245 -5 -65 -17
-71 -17 -80 -2 -22 37 -124 129 -178 161 -120 71 -249 105 -307 80z m174 -169
c48 -19 146 -91 146 -109 0 -3 -17 -5 -38 -3 -57 6 -150 -14 -214 -46 l-58
-29 0 60 c0 90 34 144 92 146 10 1 42 -8 72 -19z m1169 0 c17 -14 29 -37 36
-71 12 -56 14 -109 4 -109 -3 0 -29 11 -58 24 -57 28 -170 50 -215 44 -68 -10
-9 54 95 104 71 33 103 35 138 8z m-861 -220 c14 -10 31 -33 38 -50 11 -27 11
-34 -3 -47 -13 -13 -21 -14 -49 -4 -53 19 -108 59 -108 81 0 41 79 54 122 20z
m542 7 c12 -9 16 -20 12 -33 -8 -27 -90 -76 -129 -78 -28 -1 -32 2 -35 27 -5
40 54 97 100 97 19 0 42 -6 52 -13z m-223 -421 c75 -14 166 -51 204 -84 11 -9
34 -34 50 -56 59 -77 30 -189 -65 -252 -146 -97 -373 -109 -534 -28 -245 123
-166 364 138 419 92 17 116 17 207 1z"/>
<path d="M899 790 c-115 -14 -133 -85 -45 -178 40 -43 82 -65 111 -58 31 8
121 108 128 143 10 52 -24 83 -103 93 -25 3 -66 3 -91 0z"/>
</g>
</svg>
