<?xml version="1.0" standalone="no"?>
<!DOCTYPE svg PUBLIC "-//W3C//DTD SVG 20010904//EN"
 "http://www.w3.org/TR/2001/REC-SVG-20010904/DTD/svg10.dtd">
<svg version="1.0" xmlns="http://www.w3.org/2000/svg"
 width="246.000000pt" height="246.000000pt" viewBox="0 0 246.000000 246.000000"
 preserveAspectRatio="xMidYMid meet">
<metadata>
Created by potrace 1.11, written by Peter Selinger 2001-2013
</metadata>
<g transform="translate(0.000000,246.000000) scale(0.100000,-0.100000)"
fill="#000000" stroke="none">
<path d="M310 2199 c-63 -25 -110 -97 -136 -206 -18 -80 -21 -297 -4 -378 8
-40 9 -70 1 -103 -16 -74 -22 -122 -17 -122 3 0 27 16 53 37 182 139 456 173
641 79 54 -27 152 -102 152 -115 0 -5 -19 -4 -42 1 -60 14 -243 4 -303 -17
-115 -39 -179 -79 -266 -165 -129 -128 -176 -242 -167 -400 10 -172 128 -320
303 -380 32 -11 60 -20 62 -20 1 0 3 24 3 53 0 55 24 107 63 139 40 32 55 23
67 -38 6 -30 32 -95 56 -144 l44 -88 80 -41 c201 -105 419 -107 617 -8 38 20
74 42 81 49 30 37 102 196 108 240 4 27 11 51 15 54 15 9 63 -25 88 -61 15
-22 25 -55 28 -94 3 -34 7 -61 8 -61 1 0 28 9 60 20 288 99 393 418 225 679
-78 121 -200 214 -340 261 -75 26 -250 38 -317 22 -24 -5 -43 -6 -43 -1 0 13
98 88 152 115 186 94 459 60 641 -80 27 -21 51 -36 53 -34 2 2 -2 33 -8 69 -7
35 -11 82 -11 104 1 22 5 110 8 196 7 139 5 164 -14 238 -24 96 -49 141 -99
179 -46 35 -153 43 -234 17 -173 -57 -373 -199 -435 -310 -7 -12 -19 -11 -73
7 -52 17 -91 22 -190 22 -117 1 -169 -7 -253 -40 -8 -3 -25 14 -44 44 -59 89
-219 202 -374 262 -83 32 -186 40 -239 19z m273 -231 c34 -18 82 -53 107 -78
l45 -44 -105 -7 c-111 -8 -160 -21 -247 -68 l-53 -29 0 62 c0 193 89 251 253
164z m1446 27 c37 -19 61 -80 68 -172 3 -40 3 -73 0 -73 -2 0 -38 16 -78 35
-85 40 -153 55 -250 55 -38 0 -69 4 -69 9 0 17 89 90 142 117 92 47 139 54
187 29z m-1090 -292 c37 -29 65 -85 56 -114 -9 -27 -56 -25 -119 7 -102 51
-121 94 -56 127 41 21 72 16 119 -20z m689 11 c12 -8 22 -23 22 -33 0 -31 -82
-92 -152 -111 -20 -6 -33 -4 -50 9 l-22 18 25 49 c18 37 35 54 69 72 45 23 66
22 108 -4z m-218 -555 c96 -26 163 -61 221 -116 149 -140 80 -340 -148 -427
-99 -37 -154 -47 -268 -47 -224 0 -404 81 -471 213 -128 252 281 484 666 377z"/>
<path d="M1145 1013 c-11 -2 -30 -6 -42 -8 -12 -3 -35 -17 -52 -31 -52 -44
-39 -103 42 -191 97 -106 168 -96 269 39 48 64 53 125 13 157 -41 32 -158 50
-230 34z"/>
</g>
</svg>
